<svg viewBox="0 0 457 503"
  xmlns="http://www.w3.org/2000/svg"
  xmlns:xlink="http://www.w3.org/1999/xlink" fill-rule="evenodd" clip-rule="evenodd" overflow="hidden">
  <g transform="translate(-99.2409 -131.769)">
    <path d="M465.391 381.102C464.851 381.43 447.042 378.442 424.726 376.931 406.501 375.696 385.27 375.743 367.982 376.914 353.963 377.863 335.544 370.816 333.343 379.191 325.105 410.542 307.38 437.846 284.832 459.119 267.869 475.122 248.455 487.257 227.457 494.734 202.458 481.892 190.652 453.33 201.305 428.287 209.754 408.424 219.585 386.547 201.435 381.542 188.222 377.898 180.967 390.555 175.888 404.087 166.158 430.01 147.669 456.835 142.4 488.608 136.838 522.15 142.382 557.755 171.392 577.861 238.954 624.687 312.292 548.833 389.617 529.765 417.641 522.854 448.402 523.968 473.092 509.668 491.633 498.929 503.856 481.133 507.325 461.152 512.905 429.015 496.186 397.086 465.391 381.102Z" stroke="#FFFFFF" stroke-width="20" fill="#C21325" fill-rule="nonzero"/>
    <path d="M333.343 379.191C325.105 410.542 307.38 437.846 284.832 459.119 267.869 475.122 248.455 487.257 227.456 494.734 202.457 481.892 190.651 453.33 201.304 428.287 209.753 408.424 219.584 386.547 201.434 381.542 188.221 377.898 180.966 390.555 175.887 404.087 166.157 430.01 147.668 456.835 142.399 488.608 136.837 522.15 142.381 557.755 171.391 577.861 238.953 624.687 312.291 548.833 389.617 529.765 417.641 522.854 448.402 523.968 473.092 509.668 491.633 498.929 503.856 481.133 507.325 461.153 512.905 429.016 496.186 397.087 465.391 381.103" stroke="#FFFFFF" stroke-width="20" fill="none"/>
    <path d="M395.364 254.17 449.685 364.982 514.778 173 275.789 173 340.732 364.641 395.364 254.17Z" fill="#C21325" fill-rule="nonzero"/>
    <path d="M395.364 254.17 449.685 364.982 514.777 173 275.789 173 340.732 364.641 395.364 254.17Z" stroke="#FFFFFF" stroke-width="20" fill="none"/>
    <circle cx="329.46" cy="379.583" r="40.945" fill="#C21325"/>
    <circle cx="329.46" cy="379.583" r="40.945" stroke="#FFFFFF" stroke-width="20" fill="none"/>
    <circle cx="462.844" cy="379.583" r="40.945" stroke="#FFFFFF" stroke-width="20" fill="#C21325"/>
    <circle cx="462.844" cy="379.583" r="40.945" stroke="#FFFFFF" stroke-width="20" fill="none"/>
    <circle cx="195.571" cy="379.877" r="40.945" fill="#C21325"/>
    <circle cx="195.571" cy="379.877" r="40.945" stroke="#FFFFFF" stroke-width="20" fill="none"/>
  </g>
</svg>
